<?xml version="1.0" encoding="UTF-8"?>
<svg id="Warstwa_2" data-name="Warstwa 2" xmlns="http://www.w3.org/2000/svg" viewBox="0 0 38.73 52">
  <g id="icon-v11-survival-pixarts-store">
    <g id="icon-v11-survival-pixarts-store_88">
      <path d="M21.47,29.91c-2.53-1.35-4.75-6.21-3.9-9.75-4.51,3.85-6.8,9.02-2.39,14.44-2.97-.82-5.37-3.2-6.3-5.41-1.44-3.43-.91-6.94,1.1-9.59l5.38-7.08c1.83-2.41,2.35-5.26,1.77-8.25,5.62,2.62,8.33,8.79,6.3,14.75-.12.34.04,1.14.25,1.4.26.32,1.53.01,1.77-.35.63-.96.94-2.48,1.19-3.88,2.13,2.06,3.66,4.78,3.98,7.86.49,4.67-2.2,8.91-6.6,10.36,1.98-1.75,2.41-4.98.29-6.97-.24.82-1.7,3.08-2.83,2.47Z"/>
      <path d="M34.47,44.53c-2.56,1.4-3.06,3.67-2.48,6.34L2.74,39.54c-2.01-.78-3.01-1.94-2.49-4.08.35-1.4,2.3-2.99,4.25-2.25l29.97,11.33Z"/>
      <path d="M30.72,41.52l-9.09-3.49,12.07-4.69c1.63-.63,3.5-.11,4.3,1.11.86,1.32.95,3.83-.75,4.5l-6.52,2.57Z"/>
      <path d="M17.12,46.77l-10.32,4.2c.3-2.92.12-4.86-2.48-6.35.95-.49,2.66-1.24,3.73-1.44l9.08,3.59Z"/>
      <path d="M4.28,51.71c-1.77.9-3.44-.42-4.02-2.01-.52-1.39-.38-3.42,1.54-4.07,1.46-.49,3.08.73,3.5,1.86.53,1.44.38,3.5-1.01,4.21Z"/>
      <path d="M38.58,49.24c-.34,1.02-.98,1.96-1.53,2.32-.72.48-2.47.51-3.01-.04-1.35-1.39-1.21-3.61-.07-4.91.88-1,2.4-1.38,3.38-.81s1.69,2.03,1.22,3.43Z"/>
      <path d="M13.31,10.21c-.65-4.17-4.64-6.41-.23-10.21-.7,5.24,3.99,5.94.23,10.21Z"/>
      <path d="M27.14,12.83l-1.43-4.2c-1.38-1.86-.54-4.38.98-5.55.19,1.8.51,3.14,1.09,4.5,1.29,1.68.98,3.92-.65,5.25Z"/>
      <path d="M9.4,15.5c-.23-4.21-3.25-5.33-.35-8.53.48,4.06,3.59,4.71.35,8.53Z"/>
    </g>
  </g>
</svg>